<svg width="12" height="12" viewBox="0 0 12 12" fill="none" xmlns="http://www.w3.org/2000/svg" class="DebugPanelButton_module_debugPanelButtonIcon__02c58441"><path fill-rule="evenodd" clip-rule="evenodd" d="M10.6667 6C10.6667 8.57733 8.57733 10.6667 6 10.6667C3.42267 10.6667 1.33333 8.57733 1.33333 6C1.33333 3.42267 3.42267 1.33333 6 1.33333C8.57733 1.33333 10.6667 3.42267 10.6667 6ZM12 6C12 9.31371 9.31371 12 6 12C2.68629 12 0 9.31371 0 6C0 2.68629 2.68629 0 6 0C9.31371 0 12 2.68629 12 6ZM6 4.66667C6.36819 4.66667 6.66667 4.36819 6.66667 4C6.66667 3.63181 6.36819 3.33333 6 3.33333C5.63181 3.33333 5.33333 3.63181 5.33333 4C5.33333 4.36819 5.63181 4.66667 6 4.66667ZM6 5.33333C6.36819 5.33333 6.66667 5.54653 6.66667 5.80952V8.19048C6.66667 8.45347 6.36819 8.66667 6 8.66667C5.63181 8.66667 5.33333 8.45347 5.33333 8.19048V5.80952C5.33333 5.54653 5.63181 5.33333 6 5.33333Z" fill="white"></path></svg>