<svg viewBox="0 0 20 20" xmlns="http://www.w3.org/2000/svg" aria-hidden="true" data-vimeo-small-icon="true"><path fill="#fff" fill-rule="evenodd" clip-rule="evenodd" d="M18.7781 6.00913C18.6943 7.81161 17.4171 10.2795 14.9465 13.4122C12.3922 16.6841 10.231 18.3203 8.46324 18.3203C7.36838 18.3203 6.44133 17.3242 5.68438 15.331C5.17905 13.5043 4.67352 11.6776 4.168 9.85093C3.60591 7.8589 3.00305 6.86167 2.35829 6.86167C2.21771 6.86167 1.7259 7.1533 0.88381 7.73392L0 6.61152C0.927048 5.80871 1.84171 5.00589 2.74171 4.20176C3.9781 3.14879 4.90648 2.59501 5.52533 2.53908C6.98743 2.40059 7.88743 3.38562 8.22533 5.49419C8.5901 7.76902 8.84286 9.18398 8.98457 9.73796C9.40629 11.6253 9.86971 12.5681 10.3766 12.5681C10.7697 12.5681 11.3602 11.9557 12.148 10.7316C12.9345 9.50713 13.3562 8.57558 13.413 7.93547C13.5251 6.87875 13.1034 6.34917 12.148 6.34917C11.6981 6.34917 11.2345 6.45126 10.7575 6.65281C11.6808 3.67218 13.445 2.22456 16.0486 2.30695C17.9792 2.36287 18.8891 3.59693 18.7781 6.00913Z"></path></svg>